<?xml version="1.0" encoding="utf-8"?><svg xmlns="http://www.w3.org/2000/svg" xmlns:xlink="http://www.w3.org/1999/xlink"><symbol viewBox="0 0 36 36" id="facebook" xmlns="http://www.w3.org/2000/svg"><path d="M6.75 33H18V22.687h-3.75V18H18v-3.75a5.624 5.624 0 015.625-5.625h3.75v4.688H25.5c-1.035 0-1.875-.098-1.875.937V18h4.688l-1.875 4.688h-2.813V33h5.625A3.755 3.755 0 0033 29.25V6.75A3.754 3.754 0 0029.25 3H6.75A3.753 3.753 0 003 6.75v22.5A3.754 3.754 0 006.75 33z"/></symbol><symbol viewBox="0 0 36 36" id="instagram" xmlns="http://www.w3.org/2000/svg"><path d="M32.918 11.82c-.07-1.594-.328-2.69-.697-3.64a7.321 7.321 0 00-1.735-2.66 7.383 7.383 0 00-2.655-1.729c-.955-.37-2.045-.627-3.64-.697C22.587 3.018 22.077 3 18.004 3s-4.583.018-6.183.088c-1.594.07-2.69.328-3.64.697A7.32 7.32 0 005.52 5.52a7.386 7.386 0 00-1.729 2.655c-.37.955-.627 2.045-.697 3.64C3.018 13.42 3 13.93 3 18.002c0 4.073.018 4.583.088 6.183.07 1.594.328 2.69.697 3.64a7.398 7.398 0 001.735 2.66 7.383 7.383 0 002.655 1.729c.955.369 2.045.627 3.64.697 1.6.07 2.11.088 6.182.088 4.073 0 4.583-.017 6.183-.088 1.594-.07 2.69-.328 3.64-.697a7.673 7.673 0 004.39-4.39c.368-.955.626-2.045.696-3.64.07-1.6.088-2.109.088-6.182s-.006-4.583-.076-6.183zm-2.701 12.25c-.065 1.465-.311 2.256-.516 2.783a4.977 4.977 0 01-2.849 2.849c-.527.205-1.324.45-2.783.515-1.583.07-2.057.088-6.06.088s-4.483-.017-6.06-.088c-1.465-.064-2.256-.31-2.784-.515a4.616 4.616 0 01-1.723-1.12 4.663 4.663 0 01-1.12-1.723c-.204-.527-.45-1.324-.515-2.783-.07-1.583-.088-2.058-.088-6.06 0-4.003.018-4.484.088-6.06.065-1.465.31-2.256.516-2.784a4.56 4.56 0 011.125-1.723 4.657 4.657 0 011.723-1.12c.528-.204 1.325-.45 2.784-.515 1.582-.07 2.057-.088 6.06-.088 4.008 0 4.483.018 6.06.088 1.465.065 2.256.31 2.783.516.65.24 1.243.62 1.723 1.12a4.664 4.664 0 011.12 1.722c.205.528.45 1.325.515 2.784.07 1.582.088 2.057.088 6.06 0 4.002-.017 4.471-.087 6.054z"/><path d="M18.003 10.296a7.709 7.709 0 00-7.707 7.707 7.709 7.709 0 007.707 7.707 7.708 7.708 0 007.707-7.707 7.708 7.708 0 00-7.707-7.707zm0 12.706a5 5 0 11.002-10 5 5 0 01-.002 10zm9.811-13.01a1.8 1.8 0 11-3.599 0 1.8 1.8 0 013.599 0z"/></symbol><symbol viewBox="0 0 36 36" id="skype" xmlns="http://www.w3.org/2000/svg"><path d="M18.061 27.029c-5.011 0-7.3-2.539-7.3-4.401a1.61 1.61 0 01.506-1.175 1.63 1.63 0 011.207-.44c2.145 0 1.584 3.2 5.587 3.2 2.046 0 3.248-1.225 3.248-2.375 0-.692-.397-1.482-1.748-1.798l-4.47-1.121c-3.59-.91-4.216-2.895-4.216-4.737 0-3.823 3.516-5.206 6.863-5.206 3.084 0 6.75 1.694 6.75 3.986 0 .988-.83 1.516-1.793 1.516-1.833 0-1.525-2.558-5.21-2.558-1.833 0-2.796.854-2.796 2.05 0 1.195 1.425 1.6 2.677 1.872l3.297.74c3.616.81 4.58 2.92 4.58 4.94 0 3.106-2.42 5.507-7.187 5.507h.005zm13.836-6.574c.143-.816.215-1.642.214-2.47a14.005 14.005 0 00-5.016-10.79A14.17 14.17 0 0015.553 4.1 8.34 8.34 0 0011.391 3a8.451 8.451 0 00-7.26 4.198 8.356 8.356 0 00-.025 8.352 13.997 13.997 0 003.881 12.42 14.174 14.174 0 0012.468 3.93 8.334 8.334 0 004.157 1.1 8.451 8.451 0 007.256-4.197 8.356 8.356 0 00.03-8.348z"/></symbol><symbol viewBox="0 0 36 36" id="telegram" xmlns="http://www.w3.org/2000/svg"><path fill-rule="evenodd" clip-rule="evenodd" d="M33 18c0 8.284-6.716 15-15 15-8.284 0-15-6.716-15-15C3 9.716 9.716 3 18 3c8.284 0 15 6.716 15 15zm-14.462-3.926c-1.46.607-4.375 1.863-8.748 3.768-.71.282-1.082.558-1.116.828-.057.457.514.637 1.293.881l.328.105c.766.249 1.796.54 2.332.552.485.01 1.028-.19 1.626-.601 4.086-2.758 6.195-4.152 6.327-4.182.094-.022.223-.048.311.03s.079.225.07.265c-.057.241-2.3 2.328-3.462 3.407-.362.337-.619.576-.671.63-.118.122-.238.238-.353.349-.712.686-1.245 1.2.03 2.04a125.6 125.6 0 011.591 1.07c.534.364 1.067.727 1.756 1.179.176.115.343.234.507.35.621.444 1.18.842 1.87.778.4-.037.814-.413 1.024-1.538.497-2.656 1.474-8.412 1.7-10.784a2.643 2.643 0 00-.025-.59.632.632 0 00-.214-.407c-.18-.145-.457-.176-.581-.174-.564.01-1.43.311-5.595 2.044z"/></symbol><symbol viewBox="0 0 36 36" id="youtube" xmlns="http://www.w3.org/2000/svg"><g clip-path="url(#ea)"><path d="M35.203 8.894l.045.294c-.434-1.544-1.609-2.735-3.101-3.168l-.032-.008c-2.807-.762-14.1-.762-14.1-.762s-11.265-.015-14.1.762A4.566 4.566 0 00.79 9.156l-.007.032c-1.049 5.476-1.056 12.056.046 17.92l-.046-.297c.435 1.544 1.61 2.735 3.102 3.168l.032.008c2.803.763 14.1.763 14.1.763s11.263 0 14.1-.764a4.565 4.565 0 003.126-3.143l.007-.032c.477-2.547.75-5.478.75-8.472 0-.11 0-.22-.002-.331.002-.102.002-.224.002-.345a48.35 48.35 0 00-.797-8.77zM14.412 23.477v-10.94l9.399 5.478-9.399 5.462z"/></g><defs><clipPath id="ea"><path d="M0 0h36v36H0z"/></clipPath></defs></symbol></svg>