<svg width="50" height="50" viewBox="0 0 50 50" fill="none" xmlns="http://www.w3.org/2000/svg">
<rect width="50" height="50" fill="white"/>
<path d="M28.281 34.9193C28.3777 32.931 29.8343 32.0745 30.5505 31.8948C30.3509 33.5636 30.9072 35.6211 31.2377 36.5044C31.8521 38.1462 32.2394 39.6511 32.116 40.7247C29.0185 40.9139 28.1569 37.4692 28.281 34.9193Z" fill="#15162A"/>
<path d="M31.9696 36.1276C31.1904 34.1003 31.0646 32.4036 31.0991 31.8086C33.1614 31.5877 34.5579 34.0557 34.735 36.4691C34.914 38.9065 33.671 40.3598 32.7203 40.5133C32.7947 39.8961 32.7488 38.1549 31.9696 36.1276Z" fill="#15162A"/>
<path d="M40.1649 24.2746C41.6188 25.6344 41.3299 27.2993 41.0037 27.9617C39.86 26.7301 37.9311 25.8236 37.0436 25.5044C35.394 24.911 33.9959 24.2331 33.2568 23.4446C35.116 20.9599 38.3004 22.5307 40.1649 24.2746Z" fill="#15162A"/>
<path d="M36.8577 26.3061C38.9078 27.0231 40.2832 28.0246 40.7146 28.4357C39.5492 30.1515 36.7637 29.6202 34.8086 28.1944C32.8339 26.7543 32.5294 24.8663 33.0273 24.042C33.4499 24.498 34.8076 25.5891 36.8577 26.3061Z" fill="#15162A"/>
<path fill-rule="evenodd" clip-rule="evenodd" d="M31.7856 17.355C32.8019 16.3829 34.9493 14.2974 35.4088 13.7318C35.9833 13.0248 37.7065 10.683 37.6623 10.1969C37.6181 9.71088 37.353 9.3574 37.0879 9.18066C36.8228 9.00391 35.9145 8.78801 35.5856 9.44577C34.7902 11.0365 32.0065 14.1294 30.1949 15.9411C29.7973 16.3387 27.1019 17.4876 25.3345 17.9294C24.0089 18.2608 18.6271 21.7382 16.5416 23.8945C14.7466 25.7503 10.444 30.6549 9.33932 35.5595C9.254 35.9383 8.89692 36.6629 8.61292 37.2393L8.6129 37.2393C8.46623 37.5369 8.33905 37.795 8.27886 37.9455C8.10212 38.2106 7.82817 38.8204 8.1463 39.1385C8.54397 39.5362 8.98583 39.6246 9.56024 39.3153C9.60026 39.2937 9.64651 39.2685 9.69854 39.2402C10.3933 38.8616 12.1198 37.9209 13.8462 37.592C15.3927 37.2975 21.0043 33.5269 22.3299 32.1572C22.409 32.0754 22.497 31.9849 22.5926 31.8866L22.5927 31.8866C23.8848 30.5579 26.5747 27.7921 27.8089 25.5293C27.9535 25.2642 28.2154 24.9814 28.6042 25.0875C28.8694 25.1598 28.8422 25.5293 28.6042 25.9712C26.1299 30.5665 19.7229 36.5316 13.8462 38.4757L13.8425 38.477L13.8425 38.477C13.5321 38.5797 12.9363 38.7768 13.0067 38.9176C15.702 38.7409 19.6346 37.592 23.1252 34.3665C26.1299 31.8037 28.6042 28.9316 30.2391 24.1154C30.5813 23.1074 30.9282 21.4039 31.2433 19.8564L31.2433 19.8564L31.2433 19.8563L31.2433 19.8563C31.4393 18.894 31.623 17.992 31.7856 17.355ZM24.0973 25.0876C25.3419 25.0876 26.3508 24.0787 26.3508 22.8341C26.3508 21.5896 25.3419 20.5806 24.0973 20.5806C22.8528 20.5806 21.8439 21.5896 21.8439 22.8341C21.8439 24.0787 22.8528 25.0876 24.0973 25.0876ZM21.5787 27.6502C21.5787 28.9192 20.5698 29.9479 19.3253 29.9479C18.0807 29.9479 17.0718 28.9192 17.0718 27.6502C17.0718 26.3813 18.0807 25.3526 19.3253 25.3526C20.5698 25.3526 21.5787 26.3813 21.5787 27.6502ZM14.5532 34.72C15.7978 34.72 16.8067 33.7111 16.8067 32.4665C16.8067 31.2219 15.7978 30.213 14.5532 30.213C13.3087 30.213 12.2998 31.2219 12.2998 32.4665C12.2998 33.7111 13.3087 34.72 14.5532 34.72Z" fill="#5156EA"/>
</svg>
