<svg width="50" height="50" viewBox="0 0 50 50" fill="none" xmlns="http://www.w3.org/2000/svg">
<rect width="50" height="50" fill="white"/>
<path fill-rule="evenodd" clip-rule="evenodd" d="M28.5096 18.0038H12V8.71923C12 8.32692 12.2942 8 12.6212 8H27.725C28.1696 8 28.5096 8.26154 28.5096 8.62115V18.0038ZM28.5096 41.3788V19.1808H12V41.2808C12 41.7515 12.3596 42 12.7192 42H27.7577C28.15 42 28.5096 41.7058 28.5096 41.3788ZM13.7 11.4981C13.7 11.1189 14.0074 10.8115 14.3865 10.8115C14.7657 10.8115 15.0731 11.1189 15.0731 11.4981V14.7673C15.0731 15.1465 14.7657 15.4538 14.3865 15.4538C14.0074 15.4538 13.7 15.1465 13.7 14.7673V11.4981ZM14.3866 20.5539C14.0074 20.5539 13.7 20.8612 13.7 21.2404V25.0327C13.7 25.4119 14.0074 25.7192 14.3866 25.7192C14.7658 25.7192 15.0731 25.4119 15.0731 25.0327V21.2404C15.0731 20.8612 14.7658 20.5539 14.3866 20.5539Z" fill="#5156EA"/>
<path d="M29.6865 25.4577V21.9923H36.7154C36.9508 21.9923 37.1404 22.2212 37.1404 22.4173V25.4577H29.6865Z" fill="#15162A"/>
<path d="M29.6865 26.6346V29.4135C33.3808 29.25 34.3288 32.1596 34.3288 33.5654C34.3288 34.9712 33.3154 37.9462 29.6865 37.5866V40.1366H36.65C36.9115 40.1366 37.1404 39.9731 37.1404 39.8096V26.6346H29.6865Z" fill="#15162A"/>
</svg>
