<svg width="50" height="50" viewBox="0 0 50 50" fill="none" xmlns="http://www.w3.org/2000/svg">
<rect width="50" height="50" fill="white"/>
<path fill-rule="evenodd" clip-rule="evenodd" d="M10.2275 23.8672C11.4806 24.1492 12.8631 24.4604 13.4913 23.7241C13.6766 23.5069 14.0164 22.9669 14.2635 22.0485C15.2318 18.4491 18.773 14.9429 22.6647 14.043C23.3134 13.8931 24.2276 13.3976 24.1782 12.4295C24.1544 11.9641 24.0114 10.4561 23.7149 9.51282C35.6064 8.27164 42 17.8285 42 25.6789C42 34.7703 35.0813 42 25.877 42C16.0549 42 8.54938 33.9015 9.56863 23.7241C9.78062 23.7666 10.002 23.8165 10.2275 23.8672ZM25.7224 35.4217C31.1129 35.4217 35.4827 31.0318 35.4827 25.6166C35.4827 20.2014 31.1129 15.8114 25.7224 15.8114C20.332 15.8114 15.9622 20.2014 15.9622 25.6166C15.9622 31.0318 20.332 35.4217 25.7224 35.4217Z" fill="#15162A"/>
<path fill-rule="evenodd" clip-rule="evenodd" d="M34.2474 25.6787C34.2474 30.4085 30.4307 34.2427 25.7226 34.2427C21.0144 34.2427 17.1977 30.4085 17.1977 25.6787C17.1977 20.949 21.0144 17.1147 25.7226 17.1147C30.4307 17.1147 34.2474 20.949 34.2474 25.6787ZM29.985 25.6787C29.985 28.0436 28.0766 29.9607 25.7226 29.9607C23.3685 29.9607 21.4602 28.0436 21.4602 25.6787C21.4602 23.3138 23.3685 21.3967 25.7226 21.3967C28.0766 21.3967 29.985 23.3138 29.985 25.6787ZM25.7534 20.0937C26.1798 20.0937 26.5256 19.7464 26.5256 19.318C26.5256 18.8895 26.1798 18.5422 25.7534 18.5422C25.3269 18.5422 24.9812 18.8895 24.9812 19.318C24.9812 19.7464 25.3269 20.0937 25.7534 20.0937ZM32.6412 23.724C32.6412 24.1524 32.2955 24.4997 31.869 24.4997C31.4425 24.4997 31.0968 24.1524 31.0968 23.724C31.0968 23.2955 31.4425 22.9482 31.869 22.9482C32.2955 22.9482 32.6412 23.2955 32.6412 23.724ZM19.6995 24.4997C20.126 24.4997 20.4717 24.1524 20.4717 23.724C20.4717 23.2956 20.126 22.9483 19.6995 22.9483C19.2731 22.9483 18.9274 23.2956 18.9274 23.724C18.9274 24.1524 19.2731 24.4997 19.6995 24.4997ZM22.8191 30.9227C22.8191 31.3511 22.4734 31.6984 22.0469 31.6984C21.6205 31.6984 21.2748 31.3511 21.2748 30.9227C21.2748 30.4943 21.6205 30.147 22.0469 30.147C22.4734 30.147 22.8191 30.4943 22.8191 30.9227ZM29.5216 31.6984C29.948 31.6984 30.2938 31.3511 30.2938 30.9227C30.2938 30.4943 29.948 30.147 29.5216 30.147C29.0951 30.147 28.7494 30.4943 28.7494 30.9227C28.7494 31.3511 29.0951 31.6984 29.5216 31.6984Z" fill="#5156EA"/>
<path fill-rule="evenodd" clip-rule="evenodd" d="M12.0396 23.1965L8.61115 22.6069C8.0243 22.4828 7.94879 22.0484 8.0243 21.7071C9.70455 14.1112 15.9623 9.19651 20.9351 8.11643C22.0779 7.86822 22.4794 8.02336 22.603 8.51981C22.778 9.51273 23.1342 11.5544 23.1589 11.7778C23.1606 11.7933 23.1627 11.8105 23.165 11.8292C23.2038 12.1482 23.2963 12.9086 22.4794 13.1431C16.4503 14.5829 13.8516 19.866 13.306 22.3277C13.1577 23.1717 12.5647 23.2585 12.0396 23.1965ZM21.213 11.002C21.213 11.4305 20.8673 11.7778 20.4409 11.7778C20.0144 11.7778 19.6687 11.4305 19.6687 11.002C19.6687 10.5736 20.0144 10.2263 20.4409 10.2263C20.8673 10.2263 21.213 10.5736 21.213 11.002ZM11.1748 21.1486C11.6012 21.1486 11.9469 20.8013 11.9469 20.3729C11.9469 19.9445 11.6012 19.5972 11.1748 19.5972C10.7483 19.5972 10.4026 19.9445 10.4026 20.3729C10.4026 20.8013 10.7483 21.1486 11.1748 21.1486Z" fill="#5156EA"/>
</svg>
