<svg width="50" height="50" viewBox="0 0 50 50" fill="none" xmlns="http://www.w3.org/2000/svg">
<rect width="50" height="50" fill="white"/>
<path fill-rule="evenodd" clip-rule="evenodd" d="M21.1212 10.0488C21.0511 9.71587 20.7743 9.08685 20.2276 9.23403C19.5443 9.41801 17.3366 10.0488 17.3366 10.443C17.3366 10.7163 17.3191 10.8898 17.3103 10.9424L13.7097 11.652C13.5257 11.7045 13.2471 12.0042 13.3943 12.4667C13.4779 12.7295 13.6466 12.9451 14.0251 12.9661L17.3366 12.2827C17.5469 15.6994 18.1776 21.718 18.6244 21.9283C19.6494 22.4106 23.4866 22.9007 25.011 22.9007C26.5353 22.9007 30.2937 22.3803 31.2398 21.8757C31.6078 21.6795 32.4435 13.8649 32.5276 12.4142L35.6026 13.0449C35.918 13.1238 36.286 12.9924 36.4174 12.5719C36.5507 12.1453 36.3228 11.7519 35.9443 11.6257L32.5014 10.8635V10.4956C32.5014 10.3116 32.2806 10.1381 31.818 9.96993L29.4526 9.20768C29.2161 9.12885 28.743 9.41794 28.743 9.78595V10.075C27.718 9.91731 25.668 9.55987 25.668 9.39167V7.49936C25.668 7.18397 25.2738 7 24.9058 7C24.5905 7 24.1437 7.18397 24.1437 7.49936V9.39167C23.1535 9.67205 21.1627 10.196 21.1212 10.0488ZM21.1211 11.6256C21.2263 12.4053 21.9096 14.2749 23.5917 15.2C23.8314 15.3318 24.3298 15.8479 24.6423 16.1714C24.7751 16.309 24.8744 16.4117 24.9058 16.4353C25.2387 16.0586 25.9781 15.2841 26.2724 15.2C26.6404 15.0949 28.6115 13.3077 28.6115 11.6256C28.6115 11.4129 26.8047 11.0939 25.3704 10.8407C25.2098 10.8123 25.0539 10.7848 24.9058 10.7583C24.5099 10.8437 24.0148 10.9378 23.5144 11.0329C22.3205 11.2598 21.0969 11.4923 21.1211 11.6256Z" fill="#15162A"/>
<path d="M31.2399 23.5314C27.9546 24.8981 21.9097 24.9244 18.5719 23.5314L14.288 41.0879C14.0777 42.2022 14.7873 42.2126 15.313 42.3494C18.5456 43.1904 29.8732 43.243 34.3412 42.3494C35.3924 42.1391 35.5239 41.9026 35.5239 41.2455C35.5239 39.5635 32.6679 28.7353 31.2399 23.5314Z" fill="#5156EA"/>
</svg>
