<svg width="50" height="50" viewBox="0 0 50 50" fill="none" xmlns="http://www.w3.org/2000/svg">
<rect width="50" height="50" fill="white"/>
<path d="M30.6041 26.6558C30.3426 24.3116 29.4426 21.9532 28.3933 20.008L31.9828 16.8709L31.3582 15.4135C30.9418 14.1644 31.7746 13.1321 32.5032 12.7071C33.7524 11.9784 35.3138 12.7071 35.6261 13.6439L39.2694 27.4886C41.851 28.1548 43.0127 29.8827 42.9128 30.7155C42.6629 32.7974 38.0203 36.0095 36.0425 36.8571C35.4596 37.1069 35.0015 37.1694 34.7934 36.8571C34.5852 36.5448 35.1949 35.8162 35.4179 35.2957C35.7302 34.567 34.5435 30.195 33.8565 27.9049C33.6067 27.0722 34.0647 26.6558 34.377 26.6558L35.7302 26.6558L33.5442 21.2429L30.6041 26.6558Z" fill="#15162A"/>
<path fill-rule="evenodd" clip-rule="evenodd" d="M9.0819 28.7377H15.1194V30.2992H10.4351C8.56142 30.2992 7 32.5892 7 34.463C7 36.8571 8.87371 38.7309 10.4351 38.7309H29.7968C31.6289 38.7309 33.2319 36.649 33.2319 34.6711C33.2319 32.3394 31.15 30.2992 29.7968 30.2992H24.9043V28.7377H29.4845C29.4845 22.8043 24.8002 16.2463 23.447 16.2463H15.744V17.5996L16.5767 17.9119V21.6593H12.2047C10.8515 21.6593 9.0819 23.6371 9.0819 24.678V28.7377ZM19.4914 18.9527V21.8674L22.4061 25.4066H25.7371C25.7371 23.8244 24.1757 20.306 22.5101 18.9527H19.4914ZM11.1638 33.1097C10.3589 33.1097 9.70647 33.7621 9.70647 34.567C9.70647 35.3719 10.3589 36.0243 11.1638 36.0243H29.0681C29.873 36.0243 30.5255 35.3719 30.5255 34.567C30.5255 33.7621 29.873 33.1097 29.0681 33.1097H11.1638Z" fill="#5156EA"/>
</svg>
