<svg width="50" height="50" viewBox="0 0 50 50" fill="none" xmlns="http://www.w3.org/2000/svg">
<rect width="50" height="50" fill="white"/>
<path d="M27.5561 33.7637V35.1838H41.8377V33.7231C41.8377 32.9441 40.9857 31.8162 39.8091 31.8162H29.5036C28.611 31.8162 27.5561 32.8305 27.5561 33.7637Z" fill="#15162A"/>
<path d="M27.5561 42V35.8329H41.8377V42H27.5561Z" fill="#15162A"/>
<path d="M22.2005 17.0071V14.3293H28.9356V17.0071H22.2005Z" fill="#5156EA"/>
<path d="M23.7423 13.6802V10.6778H21.3079C21.3079 11.4243 20.6993 12.0979 19.9284 12.0979C19.2792 12.0979 18.6208 11.611 18.549 10.6778C18.5165 10.2558 18.7518 9.58545 19.1981 8.93317C19.5591 8.40573 20.5776 8 21.0239 8H28.8139C29.4225 8 29.8688 8.77088 29.8688 9.29833C29.8688 9.90692 29.4225 10.6778 28.8139 10.6778H27.3939V13.6802H23.7423Z" fill="#5156EA"/>
<path d="M17.1695 23.1741H10.1098V21.3078C10.1098 20.7235 10.7184 20.1718 11.2458 20.1718H15.8711C16.6014 20.1718 17.1695 20.8209 17.1695 21.3889V23.1741Z" fill="#15162A"/>
<path fill-rule="evenodd" clip-rule="evenodd" d="M8 40.0118V25.8519C8 24.8376 9.01432 23.8233 9.94749 23.8233H17.4129C18.2649 23.8233 19.2792 24.7971 19.2792 25.6085V40.1741C19.2792 40.9856 18.3461 41.9188 17.3723 41.9188H9.86635C8.93317 41.9188 8 40.8639 8 40.0118ZM16.5203 27.9616H10.6778V34.3721H16.5203V27.9616Z" fill="#15162A"/>
<path fill-rule="evenodd" clip-rule="evenodd" d="M20.0096 40.0931V19.4009C20.0096 18.6706 20.9833 17.6563 21.7948 17.6563H29.5847C30.4368 17.6563 31.3699 18.6706 31.3699 19.6038V31.1265H29.4224C28.4081 31.1265 26.9069 32.4735 26.9069 33.8043V42H21.9165C21.2267 42 20.0096 41.1642 20.0096 40.0931ZM28.4487 22.5251H22.6062V29.1791H28.4487V22.5251Z" fill="#5156EA"/>
</svg>
