<svg width="50" height="50" viewBox="0 0 50 50" fill="none" xmlns="http://www.w3.org/2000/svg">
<rect width="50" height="50" fill="white"/>
<path d="M27.6994 26.3727L19.338 17.9315C21.1187 16.1369 24.9454 12.2951 26.0072 11.2848C27.2017 9.98872 28.0865 9.49021 28.4625 9.22433C33.4395 6.63216 37.2286 8.6903 39.2129 10.4872C41.635 12.6806 42 15.7713 42 17.1006C41.9204 20.9025 39.611 23.1159 37.8857 24.844C34.0368 23.1823 29.9556 24.4119 27.6994 26.3727Z" fill="#5156EA"/>
<path d="M26.3058 27.8018L17.8781 19.3605L10.6117 26.7715C6.25843 31.2381 8.12316 36.8571 10.6117 39.234C15.6218 44.0196 21.7933 41.9591 24.8791 37.8715C22.8352 33.0593 25.0782 29.2973 26.3058 27.8018Z" fill="#5156EA"/>
<path d="M33.0081 41.8927V26.1069C27.1153 27.383 26.0735 31.8562 26.0735 33.9832C26.0735 37.6255 28.4956 41.1616 33.0081 41.8927Z" fill="#15162A"/>
<path d="M35.0322 41.8927V26.1401C37.4876 26.1401 42 29.0314 42 33.9167C42 39.4999 36.9899 41.8927 35.0322 41.8927Z" fill="#15162A"/>
</svg>
