<svg width="50" height="50" viewBox="0 0 50 50" fill="none" xmlns="http://www.w3.org/2000/svg">
<rect width="50" height="50" fill="white"/>
<path d="M27.4824 15.7987V12.2921C27.9312 10.564 29.9791 8 33.1771 8C36.5154 8 39.2084 10.637 39.2084 14.0594C39.2084 17.6782 36.2348 20.0627 33.1771 20.0627C30.6523 20.0627 28.0995 18.1832 27.4824 15.7987Z" fill="#15162A"/>
<path fill-rule="evenodd" clip-rule="evenodd" d="M18.2531 23.0084C15.0831 24.2707 12.3339 27.2499 11.6607 30.5265C11.6171 30.7384 11.5616 30.9722 11.5017 31.2246C11.1334 32.7763 10.599 35.0275 11.6607 37.175C12.6592 39.1948 16.1884 42.0001 19.5996 42.0001H26.5006C28.2959 42.0001 30.6804 40.8058 31.8586 39.9522C32.775 39.2883 34.6639 37.3882 34.8883 35.0991C35.0093 33.8648 34.6303 31.9909 34.2712 30.5546C33.0018 25.477 29.1936 23.5975 27.6788 23.0084H18.2531ZM13.1756 31.1719C13.5683 28.535 15.8013 25.7073 18.5617 24.6076H27.3703C30.0634 25.8139 32.1393 28.1142 32.7845 31.1719H13.1756Z" fill="#5156EA"/>
<path d="M28.1837 21.4374H18.8141C18.8141 19.4401 20.5814 18.4919 21.451 18.4919H25.4626C26.6408 18.4919 28.1837 19.6701 28.1837 21.4374Z" fill="#15162A"/>
<path d="M22.3768 16.9769V15.3498H20.7497V12.7128H26.192V15.3498H25.126V16.9769H22.3768Z" fill="#5156EA"/>
</svg>
