<svg width="50" height="50" viewBox="0 0 50 50" fill="none" xmlns="http://www.w3.org/2000/svg">
<rect width="50" height="50" fill="white"/>
<path d="M32.055 11.4074V15.5141C32.055 16.0319 31.4636 16.7481 30.821 17.1527C30.2748 17.4966 29.5714 18.3058 29.2633 18.852C28.9072 19.4832 28.6159 21.0166 28.6159 22.3316H39.6615C39.6615 21.6842 39.6615 20.2985 38.9939 18.852C38.7511 18.326 38.0836 17.6787 37.3957 17.1527C36.8455 16.7319 36.2224 15.9793 36.2224 15.5141V11.468C36.2224 11.2091 36.0403 10.8611 35.838 10.8611H32.4394C32.1804 10.8611 32.055 11.2253 32.055 11.4074Z" fill="#15162A"/>
<path d="M16.5386 16.303C16.5386 14.6442 14.6976 13.0662 12.3914 13.1674C12.3914 15.2309 14.9606 16.5863 16.5386 16.303Z" fill="#15162A"/>
<path d="M10.4898 39.9317L8.00151 23.8286C7.98532 23.7153 8.10266 23.6465 8.20381 23.6465H41.7452C41.9718 23.6465 42.0284 23.8691 41.9879 24.0714L39.5806 39.6485C39.4835 40.2311 39.176 40.7409 38.7916 40.7409H11.3192C10.8984 40.7409 10.5707 40.3363 10.4898 39.9317Z" fill="#5156EA"/>
<path d="M20.7667 22.3316H10.3077C10.3077 19.7422 12.614 17.1932 15.5675 17.1932C18.5211 17.1932 20.7667 19.7826 20.7667 22.3316Z" fill="#15162A"/>
<path d="M22.0007 22.3316C22.0007 21.2311 21.8389 18.5688 19.2697 16.9504C19.0916 16.8329 19.0471 15.552 18.9055 14.6846C18.776 13.8916 18.726 12.7021 18.7841 12.1357C18.9136 10.8733 19.6743 9 22.6278 9C24.4688 9 25.8849 9.89012 26.3299 11.7311C26.3837 11.9536 26.3434 13.3292 26.3299 14.0373C27.9888 14.0373 28.4541 15.7771 28.4541 16.5863C28.4541 17.3348 28.2922 17.6382 27.8876 18.5688C27.564 19.3133 27.3617 21.3875 27.301 22.3316H22.0007Z" fill="#15162A"/>
</svg>
