<svg width="50" height="50" viewBox="0 0 50 50" fill="none" xmlns="http://www.w3.org/2000/svg">
<rect width="50" height="50" fill="white"/>
<path d="M21.4281 15.4613L20.1965 18.6284H36.2082L35.1877 16.7633H33.041L31.3871 14.1944H27.868L26.8475 12.2941H24.6305L22.9765 15.4613H21.4281Z" fill="#5156EA"/>
<path d="M17.2757 22.1827L17.5924 24.3997L16.2903 23.8015H7.739C7.28856 23.8015 7 23.344 7 22.8513C7 22.3587 7.35191 21.9012 7.739 21.9012H16.2903C16.4874 21.9012 17.0293 22.0889 17.2757 22.1827Z" fill="#5156EA"/>
<path d="M27.9736 30.2413H25.4751L22.0616 34.4642V30.2413H20.5484C20.4076 30.2413 20.2551 30.1944 20.1965 30.171V37.3498C20.1965 37.9833 21.2522 38.4056 21.78 37.8425L27.9736 30.2413Z" fill="#5156EA"/>
<path d="M19.3871 27.6373L18.4018 20.8807C18.3033 20.205 18.9648 19.9657 19.3519 19.9657H37.9678C38.1648 19.9657 38.2493 20.1417 38.1085 20.3176L30.5426 28.0947C30.1484 28.4607 29.3461 28.9745 28.7126 28.9745H20.8299C20.3373 28.9745 19.5279 28.4114 19.3871 27.6373Z" fill="#15162A"/>
<path fill-rule="evenodd" clip-rule="evenodd" d="M30.9648 29.3264C31.0821 29.256 31.373 29.059 31.5982 28.8337C31.8234 28.6085 32.2082 28.2003 32.3724 28.0244L35.1877 30.0654C35.9619 29.3616 37.0176 28.8689 38.3548 28.8689C41.3108 28.8689 43 31.4027 43 33.5141C43 35.8719 41.0997 38.2296 38.39 38.2296C35.5396 38.2296 33.6041 35.9774 33.6041 33.5141C33.6041 33.127 33.78 32.1768 34.0616 31.6138L30.9648 29.3264ZM38.3195 35.0976C39.1941 35.0976 39.9031 34.3886 39.9031 33.5141C39.9031 32.6395 39.1941 31.9305 38.3195 31.9305C37.4449 31.9305 36.7359 32.6395 36.7359 33.5141C36.7359 34.3886 37.4449 35.0976 38.3195 35.0976Z" fill="#5156EA"/>
</svg>
