<svg width="50" height="50" viewBox="0 0 50 50" fill="none" xmlns="http://www.w3.org/2000/svg">
<rect width="50" height="50" fill="white"/>
<path d="M18.7246 8L16.7324 17.8945L8.36523 17.8613L10.9219 8.96289C11.1078 8.32539 11.752 8 12.0176 8H18.7246Z" fill="#5156EA"/>
<path d="M19.6543 17.8945L21.6133 8H28.3867L30.3457 17.8945H19.6543Z" fill="#15162A"/>
<path d="M33.2344 17.8945L31.2422 8H37.8828C38.3609 8 38.9453 8.53125 39.0781 8.92969L41.668 17.8945H33.2344Z" fill="#5156EA"/>
<path d="M42 19.3555H8V21.0156C8 22.4102 9.49414 23.5391 10.125 23.5391H15.5371C16.5 23.5391 17.8613 22.4434 17.9277 20.8828C17.9941 22.4434 19.4219 23.5391 20.2188 23.5391H29.7148C30.5781 23.5391 32.0059 22.5762 32.0723 20.916C32.2051 22.5762 33.666 23.5391 34.3301 23.5391H39.6426C40.7051 23.5391 42 22.2441 42 21.082V19.3555Z" fill="#15162A"/>
<path fill-rule="evenodd" clip-rule="evenodd" d="M9.39453 24.7344V40.6055C9.39453 41.2363 9.99219 42 10.5898 42H13.6445V28.918C13.6445 28.3535 14.4148 27.7891 15.1055 27.7891H22.4434C22.8086 27.7891 23.6055 28.3801 23.6055 29.1504V42H39.3105C39.709 42 40.5723 41.5285 40.5723 40.4395V24.7344C40.362 24.8229 39.8617 25 39.543 25H34.3301C33.7988 25 32.4973 24.4355 32.0723 23.9043C31.6074 24.4355 30.3922 25 29.5156 25H20.2188C19.5879 25 18.2996 24.4289 17.9277 23.8711C17.5625 24.4355 16.0883 25 15.3711 25H10.291C10.0586 25 9.58047 24.8672 9.39453 24.7344ZM26.4277 29.0176V33.7324C26.4277 34.2305 26.9059 34.8945 27.623 34.8945H35.1934C35.7246 34.8945 36.3223 34.2902 36.3223 33.7324V29.084C36.3223 28.6191 35.8242 27.8555 35.127 27.8555H27.5898C27.125 27.8555 26.4277 28.5129 26.4277 29.0176Z" fill="#5156EA"/>
</svg>
