<svg width="50" height="50" viewBox="0 0 50 50" fill="none" xmlns="http://www.w3.org/2000/svg">
<rect width="50" height="50" fill="white"/>
<path d="M32.7167 28.5145L21.5543 17.2885C22.551 14.1665 21.355 11.6591 20.3584 10.5132C19.0295 8.98531 16.7704 7.45753 13.3154 8.18827C12.4517 8.38755 12.1859 9.31751 12.651 9.78249L15.6409 12.8381C16.1725 13.4359 16.106 14.5651 15.508 15.2958C14.91 16.0265 13.5147 16.2258 12.7839 15.5615L9.92683 12.7716C9.46173 12.2403 8.48723 12.3731 8.3322 12.9709C7.402 16.5579 8.95595 18.5506 9.66106 19.4142C11.7764 22.0048 14.3121 22.204 17.3684 21.5398L28.4644 32.6993C27.7335 35.4228 28.2904 37.9469 29.7933 39.6076C32.3181 42.3975 35.8396 42.2646 37.1684 41.6003C37.5936 41.3878 37.7 40.604 37.3677 40.2054L34.2449 36.9506C33.8463 36.4191 33.9792 35.0906 34.71 34.4928C35.4409 33.895 36.5704 33.8285 37.2349 34.4264L40.1583 37.2827C40.5304 37.6547 41.2657 37.5484 41.4208 37.3491C42.351 36.1534 42.344 32.3672 40.0255 30.1087C37.4342 27.5845 34.112 27.9831 32.7167 28.5145Z" fill="#5156EA"/>
<path d="M29.8597 22.8019L27.0691 20.012L33.7134 13.2366L33.2483 12.7716C32.7699 12.2933 32.9161 11.5759 33.5141 11.2438L38.4973 8.3211C39.0953 7.92252 39.6268 7.92249 40.0255 8.32107L41.6201 9.9153C41.9922 10.2873 42.0852 10.7788 41.8859 11.1774L38.6966 16.4914C38.3644 17.0228 37.7 17.2221 37.3013 16.8236L36.5705 16.0929L29.8597 22.8019Z" fill="#15162A"/>
<path fill-rule="evenodd" clip-rule="evenodd" d="M18.6853 25.6581L24.345 31.3043L14.5114 41.2018C13.3819 42.1981 10.8071 42.4259 9.18396 40.8032C7.78865 39.4083 7.58933 36.9505 8.7853 35.622L18.6853 25.6581ZM19.9447 30.3042C19.5638 29.8968 18.9211 29.8861 18.5267 30.2805L12.4628 36.3443C12.0866 36.7205 12.0765 37.3272 12.4398 37.7157C12.8208 38.1231 13.4635 38.1339 13.8579 37.7395L19.9218 31.6756C20.2979 31.2994 20.3081 30.6928 19.9447 30.3042Z" fill="#15162A"/>
</svg>
