<svg width="115" height="26" viewBox="0 0 115 26" fill="none" xmlns="http://www.w3.org/2000/svg">
<g clip-path="url(#clip0_106:1011)">
<path d="M37.3297 7.0505C37.9881 7.28096 38.5039 7.6431 38.877 8.13691C39.2501 8.61974 39.4367 9.20687 39.4367 9.89819C39.4367 10.9078 39.0306 11.687 38.2186 12.2356C37.4065 12.7843 36.2323 13.0587 34.696 13.0587H28.4738V1.53613H34.3668C35.8373 1.53613 36.9566 1.81048 37.7248 2.35917C38.493 2.89689 38.877 3.62665 38.877 4.54846C38.877 5.09715 38.7399 5.59098 38.4655 6.02994C38.2021 6.45791 37.8236 6.79808 37.3297 7.0505ZM31.7001 3.89003V6.11222H33.9388C35.0362 6.11222 35.5848 5.73912 35.5848 4.9929C35.5848 4.25765 35.0362 3.89003 33.9388 3.89003H31.7001ZM34.4326 10.7048C35.5739 10.7048 36.1445 10.3152 36.1445 9.53606C36.1445 8.75693 35.5739 8.36737 34.4326 8.36737H31.7001V10.7048H34.4326Z" fill="white"/>
<path d="M45.454 13.2068C44.4993 13.2068 43.6379 13.0093 42.8697 12.6142C42.1015 12.2192 41.4979 11.6705 41.059 10.9681C40.631 10.2658 40.4171 9.4702 40.4171 8.58131C40.4171 7.7034 40.631 6.91329 41.059 6.21098C41.4979 5.50865 42.096 4.96544 42.8532 4.58136C43.6214 4.1863 44.4883 3.98877 45.454 3.98877C46.4197 3.98877 47.2866 4.1863 48.0548 4.58136C48.823 4.96544 49.4211 5.50865 49.8491 6.21098C50.277 6.90231 50.491 7.69247 50.491 8.58131C50.491 9.4702 50.277 10.2658 49.8491 10.9681C49.4211 11.6705 48.823 12.2192 48.0548 12.6142C47.2866 13.0093 46.4197 13.2068 45.454 13.2068ZM45.454 10.7212C46.0027 10.7212 46.4527 10.5347 46.8038 10.1616C47.155 9.77748 47.3306 9.25072 47.3306 8.58131C47.3306 7.92287 47.155 7.4071 46.8038 7.03404C46.4527 6.66092 46.0027 6.47433 45.454 6.47433C44.9053 6.47433 44.4554 6.66092 44.1042 7.03404C43.7531 7.4071 43.5775 7.92287 43.5775 8.58131C43.5775 9.25072 43.7531 9.77748 44.1042 10.1616C44.4554 10.5347 44.9053 10.7212 45.454 10.7212Z" fill="white"/>
<path d="M59.6132 10.7213V13.0587H51.3826V11.2151L55.5142 6.45793H51.4978V4.13696H59.4482V5.96412L55.3167 10.7213H59.6132Z" fill="white"/>
<path d="M66.8007 3.98873C67.9093 3.98873 68.7983 4.31795 69.4676 4.97638C70.1478 5.63482 70.4882 6.62794 70.4882 7.95579V13.0586H67.3608V8.4661C67.3608 7.24796 66.872 6.63892 65.8957 6.63892C65.3581 6.63892 64.9245 6.81453 64.595 7.16568C64.2771 7.51683 64.1178 8.04359 64.1178 8.74589V13.0586H60.9904V0.844727H64.1178V4.95992C64.4582 4.64168 64.8584 4.40026 65.3195 4.23565C65.7801 4.07104 66.274 3.98873 66.8007 3.98873Z" fill="white"/>
<path d="M81.6995 8.61425C81.6995 8.63622 81.6829 8.89411 81.6501 9.38792H75.1647C75.2963 9.84884 75.5488 10.2055 75.9219 10.4579C76.306 10.6993 76.7833 10.82 77.3537 10.82C77.7821 10.82 78.1495 10.7596 78.4565 10.6389C78.7751 10.5182 79.0931 10.3207 79.4116 10.0463L81.0573 11.7582C80.1907 12.7239 78.9229 13.2068 77.2554 13.2068C76.2123 13.2068 75.2963 13.0093 74.5063 12.6142C73.7162 12.2192 73.1016 11.6705 72.6623 10.9681C72.2345 10.2658 72.0206 9.4702 72.0206 8.58131C72.0206 7.7034 72.2293 6.91881 72.6462 6.22743C73.074 5.52511 73.661 4.97642 74.4074 4.58136C75.1537 4.1863 75.9932 3.98877 76.9259 3.98877C77.8148 3.98877 78.6216 4.17533 79.3455 4.54844C80.07 4.91057 80.6404 5.44281 81.0573 6.14515C81.4856 6.83647 81.6995 7.65952 81.6995 8.61425ZM76.9426 6.21098C76.4596 6.21098 76.0536 6.34812 75.7241 6.62251C75.4062 6.89684 75.2032 7.26996 75.1152 7.74181H78.7693C78.6819 7.26996 78.4732 6.89684 78.1437 6.62251C77.8258 6.34812 77.425 6.21098 76.9426 6.21098Z" fill="white"/>
<path d="M88.9521 3.98877C90.0607 3.98877 90.9497 4.31799 91.619 4.97642C92.2992 5.63485 92.6396 6.62797 92.6396 7.95582V13.0587H89.5122V8.46613C89.5122 7.248 89.0234 6.63896 88.047 6.63896C87.5094 6.63896 87.0759 6.81456 86.7464 7.16571C86.4284 7.51687 86.2692 8.04362 86.2692 8.74593V13.0587H83.1417V4.13692H86.1208V5.1081C86.4721 4.74596 86.889 4.47162 87.372 4.28507C87.855 4.08754 88.3817 3.98877 88.9521 3.98877Z" fill="white"/>
<path d="M98.6522 9.93108L97.7305 10.8694V13.0586H94.6031V0.844727H97.7305V7.24796L100.924 4.13688H104.628L100.924 7.95579L104.94 13.0586H101.154L98.6522 9.93108Z" fill="white"/>
<path d="M109.963 13.2068C109.008 13.2068 108.146 13.0093 107.378 12.6142C106.611 12.2192 106.007 11.6705 105.567 10.9681C105.14 10.2658 104.926 9.4702 104.926 8.58131C104.926 7.7034 105.14 6.91329 105.567 6.21098C106.007 5.50865 106.605 4.96544 107.362 4.58136C108.13 4.1863 108.997 3.98877 109.963 3.98877C110.928 3.98877 111.795 4.1863 112.564 4.58136C113.332 4.96544 113.93 5.50865 114.358 6.21098C114.786 6.90231 115 7.69247 115 8.58131C115 9.4702 114.786 10.2658 114.358 10.9681C113.93 11.6705 113.332 12.2192 112.564 12.6142C111.795 13.0093 110.928 13.2068 109.963 13.2068ZM109.963 10.7212C110.511 10.7212 110.962 10.5347 111.312 10.1616C111.664 9.77748 111.84 9.25072 111.84 8.58131C111.84 7.92287 111.664 7.4071 111.312 7.03404C110.962 6.66092 110.511 6.47433 109.963 6.47433C109.414 6.47433 108.964 6.66092 108.613 7.03404C108.262 7.4071 108.086 7.92287 108.086 8.58131C108.086 9.25072 108.262 9.77748 108.613 10.1616C108.964 10.5347 109.414 10.7212 109.963 10.7212Z" fill="white"/>
<path opacity="0.9" d="M33.3277 15.8955V23.1129H32.6663V22.1013C32.4588 22.4449 32.1832 22.7075 31.8395 22.8891C31.5023 23.0707 31.1197 23.1614 30.6918 23.1614C30.2119 23.1614 29.7775 23.0512 29.3884 22.8308C28.9993 22.6103 28.6945 22.3023 28.4741 21.9067C28.2536 21.5111 28.1433 21.0604 28.1433 20.5547C28.1433 20.0489 28.2536 19.5982 28.4741 19.2026C28.6945 18.8071 28.9993 18.5023 29.3884 18.2883C29.7775 18.0679 30.2119 17.9576 30.6918 17.9576C31.1067 17.9576 31.4796 18.0451 31.8104 18.2202C32.1476 18.3888 32.4232 18.6385 32.6371 18.9692V15.8955H33.3277ZM30.7501 22.5487C31.1068 22.5487 31.4278 22.4676 31.7131 22.3055C32.0049 22.1369 32.2318 21.9002 32.3939 21.5954C32.5625 21.2907 32.6469 20.9438 32.6469 20.5547C32.6469 20.1656 32.5625 19.8187 32.3939 19.5139C32.2318 19.2091 32.0049 18.9757 31.7131 18.8136C31.4278 18.645 31.1068 18.5607 30.7501 18.5607C30.387 18.5607 30.0595 18.645 29.7677 18.8136C29.4824 18.9757 29.2554 19.2091 29.0868 19.5139C28.9247 19.8187 28.8437 20.1656 28.8437 20.5547C28.8437 20.9438 28.9247 21.2907 29.0868 21.5954C29.2554 21.9002 29.4824 22.1369 29.7677 22.3055C30.0595 22.4676 30.387 22.5487 30.7501 22.5487Z" fill="white"/>
<path opacity="0.9" d="M39.7059 20.7688H35.4261C35.465 21.3005 35.6693 21.7318 36.0389 22.0625C36.4085 22.3867 36.8754 22.5488 37.4396 22.5488C37.7573 22.5488 38.0491 22.4937 38.315 22.3835C38.5808 22.2668 38.811 22.0981 39.0056 21.8777L39.3946 22.3251C39.1677 22.5974 38.8824 22.805 38.5387 22.9476C38.2015 23.0903 37.8286 23.1616 37.4201 23.1616C36.8948 23.1616 36.428 23.0513 36.0194 22.8309C35.6174 22.6039 35.3029 22.2927 35.0759 21.8971C34.849 21.5015 34.7355 21.0541 34.7355 20.5548C34.7355 20.0555 34.8425 19.6081 35.0565 19.2125C35.277 18.8169 35.5753 18.509 35.9514 18.2884C36.3339 18.068 36.7619 17.9578 37.2353 17.9578C37.7087 17.9578 38.1334 18.068 38.5095 18.2884C38.8856 18.509 39.1807 18.8169 39.3946 19.2125C39.6087 19.6016 39.7157 20.049 39.7157 20.5548L39.7059 20.7688ZM37.2353 18.5511C36.7425 18.5511 36.3275 18.71 35.9902 19.0277C35.6596 19.339 35.4715 19.7475 35.4261 20.2533H39.0542C39.0088 19.7475 38.8175 19.339 38.4803 19.0277C38.1496 18.71 37.7346 18.5511 37.2353 18.5511Z" fill="white"/>
<path opacity="0.9" d="M42.4925 23.1616C42.0775 23.1616 41.6787 23.1033 41.2961 22.9865C40.92 22.8633 40.625 22.7109 40.4109 22.5294L40.7222 21.9847C40.9362 22.1533 41.2053 22.2927 41.5296 22.4029C41.8538 22.5066 42.191 22.5585 42.5412 22.5585C43.0081 22.5585 43.3517 22.4872 43.5722 22.3446C43.7991 22.1954 43.9126 21.9879 43.9126 21.722C43.9126 21.534 43.851 21.3881 43.7278 21.2843C43.6046 21.1741 43.449 21.093 43.2609 21.0411C43.0729 20.9828 42.8232 20.9277 42.5119 20.8758C42.097 20.798 41.763 20.7202 41.5101 20.6423C41.2572 20.558 41.0399 20.4186 40.8584 20.2241C40.6833 20.0295 40.5958 19.7604 40.5958 19.4168C40.5958 18.9888 40.7741 18.6386 41.1307 18.3663C41.4874 18.0939 41.9835 17.9578 42.619 17.9578C42.9497 17.9578 43.2804 18.0031 43.6111 18.0939C43.9418 18.1782 44.2142 18.2917 44.4281 18.4344L44.1266 18.9888C43.7051 18.697 43.2026 18.5511 42.619 18.5511C42.178 18.5511 41.844 18.6289 41.6171 18.7845C41.3966 18.9402 41.2864 19.1444 41.2864 19.3973C41.2864 19.5919 41.348 19.7475 41.4712 19.8642C41.6009 19.9809 41.7597 20.0685 41.9478 20.1268C42.1358 20.1787 42.3952 20.2338 42.726 20.2922C43.1345 20.37 43.462 20.4478 43.7083 20.5257C43.9548 20.6035 44.1655 20.7364 44.3406 20.9244C44.5157 21.1125 44.6032 21.3719 44.6032 21.7026C44.6032 22.15 44.4152 22.5066 44.0391 22.7725C43.6695 23.0319 43.1539 23.1616 42.4925 23.1616Z" fill="white"/>
<path opacity="0.9" d="M45.8803 17.9965H46.5709V23.1129H45.8803V17.9965ZM46.2304 16.878C46.0878 16.878 45.9678 16.8293 45.8705 16.732C45.7733 16.6348 45.7246 16.5181 45.7246 16.3818C45.7246 16.2522 45.7733 16.1387 45.8705 16.0414C45.9678 15.9442 46.0878 15.8955 46.2304 15.8955C46.3731 15.8955 46.493 15.9442 46.5903 16.0414C46.6876 16.1322 46.7362 16.2425 46.7362 16.3721C46.7362 16.5148 46.6876 16.6348 46.5903 16.732C46.493 16.8293 46.3731 16.878 46.2304 16.878Z" fill="white"/>
<path opacity="0.9" d="M53.2294 17.9966V22.4904C53.2294 23.3594 53.0154 24.0014 52.5875 24.4163C52.1659 24.8379 51.5272 25.0486 50.6713 25.0486C50.1979 25.0486 49.7472 24.9772 49.3192 24.8346C48.8977 24.6984 48.5541 24.5071 48.2882 24.2607L48.6384 23.7355C48.8847 23.9559 49.1831 24.1278 49.5332 24.251C49.8898 24.3742 50.2627 24.4358 50.6518 24.4358C51.3003 24.4358 51.7769 24.2835 52.0816 23.9786C52.3864 23.6803 52.5388 23.2135 52.5388 22.578V21.9263C52.3248 22.2505 52.0428 22.4969 51.6926 22.6655C51.3489 22.8341 50.9663 22.9184 50.5448 22.9184C50.0649 22.9184 49.6272 22.8147 49.2317 22.6072C48.8426 22.3932 48.5346 22.0981 48.3076 21.722C48.0872 21.3395 47.9769 20.9082 47.9769 20.4284C47.9769 19.9485 48.0872 19.5205 48.3076 19.1444C48.5346 18.7683 48.8426 18.4765 49.2317 18.269C49.6207 18.0615 50.0584 17.9578 50.5448 17.9578C50.9793 17.9578 51.3716 18.0453 51.7217 18.2204C52.0719 18.3955 52.354 18.6483 52.568 18.9791V17.9966H53.2294ZM50.6129 22.3056C50.9825 22.3056 51.3165 22.2278 51.6147 22.0722C51.913 21.9101 52.1433 21.6864 52.3054 21.401C52.4739 21.1157 52.5582 20.7915 52.5582 20.4284C52.5582 20.0653 52.4739 19.7442 52.3054 19.4654C52.1433 19.1801 51.913 18.9596 51.6147 18.804C51.323 18.6418 50.989 18.5608 50.6129 18.5608C50.2433 18.5608 49.9093 18.6386 49.611 18.7943C49.3192 18.9499 49.089 19.1704 48.9204 19.4557C48.7583 19.741 48.6772 20.0653 48.6772 20.4284C48.6772 20.7915 48.7583 21.1157 48.9204 21.401C49.089 21.6864 49.3192 21.9101 49.611 22.0722C49.9093 22.2278 50.2433 22.3056 50.6129 22.3056Z" fill="white"/>
<path opacity="0.9" d="M57.7673 17.9578C58.409 17.9578 58.9184 18.1458 59.2945 18.5219C59.6769 18.8915 59.8683 19.433 59.8683 20.1463V23.113H59.1778V20.2144C59.1778 19.6826 59.0449 19.2773 58.7787 18.9985C58.5131 18.7197 58.1336 18.5803 57.6408 18.5803C57.0896 18.5803 56.6518 18.7456 56.3276 19.0763C56.0098 19.4006 55.851 19.8512 55.851 20.4284V23.113H55.1604V17.9966H55.8218V18.9402C56.0099 18.6289 56.2692 18.389 56.6 18.2204C56.9371 18.0453 57.3263 17.9578 57.7673 17.9578Z" fill="white"/>
<path opacity="0.9" d="M66.9835 22.8015C66.8535 22.9182 66.6914 23.009 66.497 23.0739C66.309 23.1323 66.1112 23.1614 65.9036 23.1614C65.4235 23.1614 65.0544 23.0318 64.7945 22.7724C64.5351 22.513 64.4058 22.1466 64.4058 21.6733V18.5801H63.4915V17.9965H64.4058V16.8779H65.0963V17.9965H66.6523V18.5801H65.0963V21.6343C65.0963 21.9391 65.1711 22.1725 65.32 22.3347C65.4758 22.4903 65.6961 22.5681 65.9813 22.5681C66.1239 22.5681 66.2601 22.5454 66.3901 22.5C66.5264 22.4546 66.6431 22.3898 66.7403 22.3055L66.9835 22.8015Z" fill="white"/>
<path opacity="0.9" d="M72.5149 20.7688H68.2352C68.2737 21.3005 68.4784 21.7318 68.8476 22.0625C69.2173 22.3867 69.6842 22.5488 70.2483 22.5488C70.5662 22.5488 70.8578 22.4937 71.124 22.3835C71.3896 22.2668 71.6196 22.0981 71.8146 21.8777L72.2033 22.3251C71.9767 22.5974 71.6915 22.805 71.3477 22.9476C71.0101 23.0903 70.6375 23.1616 70.2287 23.1616C69.7037 23.1616 69.2368 23.0513 68.828 22.8309C68.4261 22.6039 68.1116 22.2927 67.885 21.8971C67.6579 21.5015 67.5446 21.0541 67.5446 20.5548C67.5446 20.0555 67.6516 19.6081 67.8655 19.2125C68.0857 18.8169 68.3841 18.509 68.7602 18.2884C69.1425 18.068 69.5709 17.9578 70.0441 17.9578C70.5174 17.9578 70.9423 18.068 71.3183 18.2884C71.6944 18.509 71.9894 18.8169 72.2033 19.2125C72.4177 19.6016 72.5247 20.049 72.5247 20.5548L72.5149 20.7688ZM70.0441 18.5511C69.5514 18.5511 69.1362 18.71 68.7993 19.0277C68.4686 19.339 68.2806 19.7475 68.2352 20.2533H71.8629C71.8174 19.7475 71.6265 19.339 71.289 19.0277C70.9584 18.71 70.5432 18.5511 70.0441 18.5511Z" fill="white"/>
<path opacity="0.9" d="M75.5774 17.9578C76.2456 17.9578 76.7579 18.1264 77.1144 18.4635C77.4709 18.7943 77.6492 19.2871 77.6492 19.942V23.113H76.9879V22.3153C76.8321 22.5812 76.6021 22.7887 76.2973 22.9379C75.9989 23.0871 75.6424 23.1616 75.2273 23.1616C74.6569 23.1616 74.2026 23.0254 73.8657 22.7531C73.5282 22.4807 73.3597 22.1208 73.3597 21.6734C73.3597 21.2389 73.5155 20.8888 73.8266 20.6229C74.1446 20.357 74.6471 20.2241 75.3342 20.2241H76.9586V19.9128C76.9586 19.4719 76.8355 19.138 76.5889 18.911C76.3428 18.6775 75.9828 18.5608 75.5096 18.5608C75.1853 18.5608 74.8742 18.6159 74.5758 18.7262C74.2774 18.8299 74.0215 18.9758 73.807 19.1639L73.496 18.6483C73.7553 18.4279 74.0663 18.2593 74.4297 18.1426C74.7931 18.0193 75.1755 17.9578 75.5774 17.9578ZM75.3342 22.6169C75.7235 22.6169 76.0576 22.5294 76.3365 22.3543C76.6153 22.1727 76.8223 21.9133 76.9586 21.5761V20.7396H75.3538C74.4786 20.7396 74.0405 21.0444 74.0405 21.6539C74.0405 21.9522 74.1543 22.1889 74.3809 22.364C74.608 22.5326 74.926 22.6169 75.3342 22.6169Z" fill="white"/>
<path opacity="0.9" d="M85.9056 17.9578C86.5478 17.9578 87.0504 18.1426 87.4138 18.5122C87.7829 18.8818 87.9681 19.4265 87.9681 20.1463V23.113H87.2775V20.2144C87.2775 19.6826 87.1476 19.2773 86.8882 18.9985C86.6352 18.7197 86.2753 18.5803 85.8084 18.5803C85.2771 18.5803 84.8585 18.7456 84.5537 19.0763C84.249 19.4006 84.0966 19.8512 84.0966 20.4284V23.113H83.406V20.2144C83.406 19.6826 83.2761 19.2773 83.0168 18.9985C82.7643 18.7197 82.4009 18.5803 81.9277 18.5803C81.4022 18.5803 80.9841 18.7456 80.6731 19.0763C80.3683 19.4006 80.2159 19.8512 80.2159 20.4284V23.113H79.5248V17.9966H80.1866V18.9304C80.3683 18.6192 80.6207 18.3792 80.945 18.2106C81.2693 18.0421 81.6425 17.9578 82.064 17.9578C82.4918 17.9578 82.8615 18.0486 83.1726 18.2301C83.4906 18.4117 83.7269 18.6808 83.8827 19.0374C84.0707 18.7002 84.3398 18.4376 84.69 18.2496C85.0465 18.055 85.4519 17.9578 85.9056 17.9578Z" fill="white"/>
<path fill-rule="evenodd" clip-rule="evenodd" d="M0 0H10.7439C15.1151 0 18.6587 3.54355 18.6587 7.91476C18.6587 8.22808 18.6405 8.53714 18.605 8.84091C20.8084 10.5668 22.2244 13.252 22.2244 16.2679C22.2244 21.4752 18.003 25.6966 12.7957 25.6966H0V13.2341H10.7439C12.9247 13.2341 14.799 11.9218 15.6201 10.0438C14.7593 9.65247 13.8029 9.43454 12.7957 9.43454H0V0ZM16.0399 7.41215C15.7866 4.71005 13.5122 2.59538 10.7439 2.59538H2.59538V6.83917H12.7957C13.9356 6.83917 15.0284 7.04145 16.0399 7.41215ZM17.7631 11.5754C16.4418 14.1038 13.7944 15.8295 10.7439 15.8295H2.59538V23.1012H12.7957C16.5696 23.1012 19.629 20.0419 19.629 16.2679C19.629 14.4508 18.9198 12.7994 17.7631 11.5754Z" fill="white"/>
</g>
<defs>
<clipPath id="clip0_106:1011">
<rect width="115" height="25.875" fill="white"/>
</clipPath>
</defs>
</svg>
