<svg width="32" height="32" viewBox="0 0 32 32" fill="none" xmlns="http://www.w3.org/2000/svg">
<path d="M10.2502 11.7231L7.49646 4.16996L18.6688 0L21.5012 7.63181L10.2502 11.7231Z" fill="#5156EA"/>
<path d="M14.8922 24.3903L10.8009 13.218L25.9072 7.63184L30.7066 20.6138L17.3312 25.4918C16.9378 24.7837 15.6003 24.1543 14.8922 24.3903Z" fill="#5156EA"/>
<circle cx="14.7348" cy="28.0882" r="3.14714" fill="#5156EA"/>
<path d="M18.3541 27.3801L17.9607 26.1999L31.1 21.4005C31.572 21.2432 31.8728 21.4374 31.9654 21.7152C32.0816 22.0637 31.8867 22.4233 31.6507 22.502L18.3541 27.3801Z" fill="#5156EA"/>
<path d="M14.0268 24.3903C13.775 24.4533 13.1613 24.7051 12.9253 24.8624L4.66402 2.12434L0.336709 1.49491C-0.21404 1.41624 -0.0566834 0.236061 0.572744 0.314737L4.66402 0.865487C5.21477 0.944165 5.52949 1.02284 5.60817 1.1802L14.0268 24.3903Z" fill="#5156EA"/>
</svg>
