<svg width="32" height="32" viewBox="0 0 32 32" fill="none" xmlns="http://www.w3.org/2000/svg">
<path d="M24.4324 19.1231L18.1141 30.0781C17.8739 30.4865 18.042 31.1351 18.5706 31.1351H31.3273C31.8799 31.1351 32.1452 30.5345 31.8799 30.1021C29.6296 26.4344 25.206 19.1039 25.5135 19.1231C25.3982 18.9502 25.2252 18.8348 25.009 18.8348C24.7447 18.8348 24.5285 18.955 24.4324 19.1231Z" fill="#5156EA"/>
<path d="M0 13.4054V0.672673C0 0.288288 0.288288 0 0.624625 0H13.4054C13.7417 0 14.03 0.312312 14.03 0.624625V13.3574C14.03 13.7417 13.7177 14.03 13.3574 14.03H0.648649C0.312312 14.03 0 13.7417 0 13.4054Z" fill="#5156EA"/>
<circle cx="24.985" cy="7.01502" r="7.01502" fill="#5156EA"/>
<path d="M3.26725 19.1472L0.120106 24.6006C0.0202848 24.7736 0.0240116 25.1051 0.120106 25.2733L3.33933 30.8709C3.43542 31.0438 3.62761 31.1111 3.74773 31.1111H10.2102C10.4745 31.1111 10.6667 30.9189 10.7868 30.7508L13.9339 25.2733C14.03 25.1195 14.006 24.7688 13.9339 24.6246L10.7387 19.1712C10.6186 18.955 10.4745 18.8348 10.2582 18.8348H3.9159C3.60839 18.8348 3.38737 18.955 3.26725 19.1472Z" fill="#5156EA"/>
</svg>
