<svg width="32" height="32" viewBox="0 0 32 32" fill="none" xmlns="http://www.w3.org/2000/svg">
<path d="M12.0585 29.6481H9.69242V31.1804C9.69242 31.5367 10.2635 32 10.9162 32C11.5689 32 12.0585 31.5367 12.0585 31.1804V29.6481Z" fill="#5156EA"/>
<path d="M19.9724 29.6481H17.6063V31.1804C17.6063 31.5367 18.1774 32 18.8301 32C19.4828 32 19.9724 31.5367 19.9724 31.1804V29.6481Z" fill="#5156EA"/>
<path d="M7 0.391982V3.99109C7 4.63252 8.75413 4.50186 8.87651 4.56125C9.46394 4.84633 10.6306 4.98886 11.2425 4.98886C12.4256 4.98886 14.0573 4.48998 14.4652 4.48998C14.6937 4.48998 15.1587 4.55333 15.3627 4.63252C15.9501 4.86058 16.9537 4.98886 17.5656 4.98886C18.1367 4.98886 19.3605 4.85028 19.8092 4.63252C20.1764 4.45434 21.1738 4.4399 21.441 4.56125C22.2568 4.93185 23.2767 5.04095 24.0517 4.98886C24.9003 4.93185 25.2348 4.20045 24.8268 3.95546C23.7825 3.32829 22.5016 1.35412 21.8897 0.356347C21.7265 0.128285 21.5225 0 21.3594 0H7.53032C7.28556 0 7 0.178174 7 0.391982Z" fill="#5156EA"/>
<path d="M12.5479 14.1826H7.48952C7.29915 13.9926 7.219 12.8998 7.48952 12.2584C7.94641 11.1751 9.03968 11.1893 9.5292 11.3319C9.82292 10.6477 10.5898 10.0235 10.9978 9.87083C11.2262 9.7853 11.4465 9.83519 11.5689 9.97773C11.6913 10.1203 11.7973 10.4695 11.5689 10.5835C11.112 10.8116 10.8074 11.1774 10.7122 11.3319C10.7775 11.3033 11.0386 11.2606 11.2833 11.2606C12.3929 11.2606 13.2414 12.686 12.5479 14.1826Z" fill="#5156EA"/>
<path fill-rule="evenodd" clip-rule="evenodd" d="M7 15.5367V27.9376C7 28.1158 7.18765 28.294 7.44873 28.294H21.3186C21.7265 28.294 22.5832 27.7951 22.5832 27.0824V6.27169C22.216 6.27169 21.4981 6.1149 21.0738 5.91534H20.2987V15.608L7 15.5367ZM9.69242 18.4944V25.1938C9.69242 25.4432 10.0188 25.7283 10.4267 25.7283C10.8346 25.7283 11.2426 25.4432 11.2426 25.1938V18.4944C11.2426 18.1737 10.8754 17.9599 10.4675 17.9599C10.0596 17.9599 9.69242 18.1737 9.69242 18.4944ZM13.9349 25.1938V18.4944C13.9349 18.1737 14.3021 17.9599 14.71 17.9599C15.1179 17.9599 15.4851 18.1737 15.4851 18.4944V25.1938C15.4851 25.4432 15.0771 25.7283 14.6692 25.7283C14.2613 25.7283 13.9349 25.4432 13.9349 25.1938ZM18.2591 18.4944V25.1938C18.2591 25.4432 18.5855 25.7283 18.9934 25.7283C19.4013 25.7283 19.8093 25.4432 19.8093 25.1938V18.4944C19.8093 18.1737 19.4421 17.9599 19.0342 17.9599C18.6262 17.9599 18.2591 18.1737 18.2591 18.4944Z" fill="#5156EA"/>
<path d="M18.5854 14.1827H14.5876C14.3918 11.4459 14.7834 10.2272 14.914 9.79958C15.0445 9.37196 15.6891 9.19379 15.9746 9.19379V7.23388C16.3662 7.06283 16.7905 7.0557 17.1984 7.23388V9.19379C17.484 9.19379 17.9577 9.30069 18.1367 9.58577C18.6915 10.4695 18.667 13.0186 18.5854 14.1827Z" fill="#5156EA"/>
</svg>
