<svg width="20" height="30" viewBox="0 0 20 30" fill="none" xmlns="http://www.w3.org/2000/svg">
<path d="M11.25 2C11.25 1.30964 10.6904 0.75 10 0.75C9.30964 0.75 8.75 1.30964 8.75 2L11.25 2ZM9.11612 28.8839C9.60427 29.372 10.3957 29.372 10.8839 28.8839L18.8388 20.9289C19.327 20.4408 19.327 19.6493 18.8388 19.1612C18.3507 18.673 17.5592 18.673 17.0711 19.1612L10 26.2322L2.92893 19.1612C2.44078 18.673 1.64932 18.673 1.16117 19.1612C0.67301 19.6493 0.67301 20.4408 1.16117 20.9289L9.11612 28.8839ZM8.75 2L8.75 28L11.25 28L11.25 2L8.75 2Z" fill="white"/>
</svg>
