<svg width="36" height="36" viewBox="0 0 36 36" fill="none" xmlns="http://www.w3.org/2000/svg">
<path d="M27.492 7.93002L16.3269 14.4667C16.2179 14.5305 16.0963 14.5003 16.1127 14.4093C16.4924 12.3069 15.1585 8.54484 14.4359 6.95721C13.6265 5.17907 11.609 5.51095 10.7941 5.98141C9.70762 6.60869 10.8684 9.56012 11.2087 11.7177C11.4809 13.4438 9.0958 18.4605 7.91226 20.5925C7.46536 21.5748 7.13106 22.794 7.16606 23.3773C7.31733 25.8976 10.1615 30.1926 11.6775 31.8186C13.1042 33.3489 16.0039 33.6667 17.3046 33.0968L26.1897 27.7859C27.2761 27.1586 27.4917 26.0684 27.3853 25.4659C27.1299 24.0198 25.8801 23.7997 25.2375 23.6275C25.476 23.3088 25.8531 22.5297 25.5686 21.535C25.284 20.5404 24.2228 19.9882 23.7134 19.8899C23.9518 19.5712 24.4418 18.4875 23.9947 17.5545C23.5477 16.6216 22.7509 16.3411 22.2676 16.2882L29.7659 11.8685C30.5264 11.4294 30.7749 10.0094 30.1908 8.99752C29.5635 7.91101 28.2782 7.56667 27.492 7.93002Z" fill="#5156EA"/>
<rect x="21.3173" y="1.94995" width="1.33066" height="5.10088" rx="0.665332" transform="rotate(26.0796 21.3173 1.94995)" fill="#15162A"/>
<rect x="24.4803" y="6.21436" width="1.33066" height="4.91418" rx="0.665332" transform="rotate(71.0796 24.4803 6.21436)" fill="#15162A"/>
<rect width="1.33066" height="4.91418" rx="0.665332" transform="matrix(0.94597 -0.324254 -0.324254 -0.94597 17.4406 7.68506)" fill="#15162A"/>
</svg>
