<svg width="36" height="36" viewBox="0 0 36 36" fill="none" xmlns="http://www.w3.org/2000/svg">
<path d="M20.1777 3.83159C20.4948 4.86716 21.577 6.30754 22.1399 6.89122C22.2784 7.04185 22.6001 6.54603 22.7436 6.27929C25.1397 2.68306 28.63 2.85332 30.8468 5.07427C33.2712 7.50315 32.4033 11.8055 29.6205 13.3211C29.1806 13.5607 29.3029 13.9362 29.3941 14.0555L30.2242 14.9686C31.0619 15.7293 32.3561 15.8912 32.7335 15.5806L33.9598 14.4038C34.3673 13.9896 33.9362 13.5188 33.6296 12.9446C33.1391 12.0257 34.2711 10.205 35.1956 10.205C35.4144 10.205 36.0446 10.1485 35.9974 9.72491V8.02093C35.9974 7.59164 35.6012 7.28855 35.1956 7.26779C33.724 7.19248 33.1108 4.95189 33.9598 4.04812C34.2428 3.74687 34.2239 3.32323 33.9598 3.05021L33.1108 2.22176C32.6505 1.78494 32.1109 1.87952 31.9033 2.08055C31.5826 2.39122 30.8657 2.6285 30.045 2.30649C29.162 1.96004 28.7022 1.06381 28.63 0.640168C28.5696 0.286193 28.3564 0 27.9979 0H26.5547C26.083 0 25.796 0.423641 25.7528 0.640168C25.4415 2.20293 23.8662 2.83441 22.4229 1.91109C21.6871 1.44038 19.9702 3.15377 20.1777 3.83159Z" fill="#15162A"/>
<path fill-rule="evenodd" clip-rule="evenodd" d="M0.933898 17.5008C3.73559 17.5008 5.21662 13.6786 3.35826 11.4851C3.12696 11.2121 3.16771 10.5135 3.65069 10.0541L5.94299 7.83237C6.29202 7.46521 6.98322 7.70051 7.38628 7.96417C9.63141 9.43279 12.8387 8.22777 13.0368 5.58237C13.0368 4.99868 13.8689 4.29827 14.4424 4.2832H17.0554C17.9044 4.2832 18.4138 5.0081 18.4138 5.58237C18.4138 8.0489 21.9607 9.39513 23.9983 8.0489C24.4889 7.7248 25.3398 7.36354 26.1397 8.12421L27.6113 9.66815C28.1301 10.2518 28.615 11.2027 27.6113 12.1064C26.4612 13.142 27.6113 17.3219 30.0074 17.3219C30.6677 17.3219 31.7903 17.7907 31.7903 18.8753V21.5583C31.7903 22.1702 31.2978 22.7407 30.0074 22.8387C28.4037 22.8387 26.4227 26.2184 27.6113 27.7435C28.0955 28.3648 28.7735 29.8447 27.6113 30.7937L26.0925 32.2529C25.6963 32.733 24.6964 32.8648 24.0738 32.2529C22.706 30.9085 18.461 31.9893 18.461 34.277C18.461 35.1431 17.895 35.9998 16.9517 35.9998H14.3009C13.7255 35.9998 12.9614 35.369 12.9614 34.277C12.9614 32.347 9.65028 30.9537 7.99001 31.9422C7.9653 31.9569 7.94047 31.9718 7.91553 31.9866C7.10266 32.4717 6.17311 33.0265 5.43359 32.2811L3.32053 29.9182C3.08469 29.6452 3.12243 28.8261 3.53749 28.4872C5.43359 26.939 3.66956 22.7257 1.36783 22.7257C0.726365 22.7257 0 22.4056 0 21.756V18.1786C0 17.755 0.466006 17.5008 0.933898 17.5008ZM15.8952 30.5113C21.6312 30.5113 26.2812 25.8707 26.2812 20.1462C26.2812 14.4217 21.6312 9.78113 15.8952 9.78113C10.1591 9.78113 5.50909 14.4217 5.50909 20.1462C5.50909 25.8707 10.1591 30.5113 15.8952 30.5113Z" fill="#5156EA"/>
</svg>
