<svg width="36" height="36" viewBox="0 0 36 36" fill="none" xmlns="http://www.w3.org/2000/svg">
<path fill-rule="evenodd" clip-rule="evenodd" d="M22.6386 19.7122C22.6428 19.8916 22.6401 20.0731 22.6302 20.2565H29.0787C28.5826 11.7795 21.8507 9.23634 17.3155 9.23634C14.8117 9.21277 8.67036 10.7905 6.82794 18.7024C9.4365 10.5759 17.5882 11.2162 21.0549 15.4931L23.5643 14.5614C25.125 13.9955 26.0875 16.0262 25.4363 16.8437L22.6386 19.7122Z" fill="#15162A"/>
<path d="M23.8202 15.1363L16.7355 17.7668C15.3566 18.3161 14.9804 20.1887 15.6637 21.3733C16.4072 22.662 18.5544 22.8341 19.3105 22.1654L24.8919 16.443C25.2646 15.9749 24.7137 14.8124 23.8202 15.1363Z" fill="#5156EA"/>
<path fill-rule="evenodd" clip-rule="evenodd" d="M17.9533 35.9999C26.7641 35.9999 33.9067 28.8574 33.9067 20.0466C33.9067 11.2358 26.7641 4.09326 17.9533 4.09326C9.14255 4.09326 2 11.2358 2 20.0466C2 28.8574 9.14255 35.9999 17.9533 35.9999ZM18.0058 32.3265C24.7588 32.3265 30.2332 26.8521 30.2332 20.0991C30.2332 13.3461 24.7588 7.87174 18.0058 7.87174C11.2528 7.87174 5.7784 13.3461 5.7784 20.0991C5.7784 26.8521 11.2528 32.3265 18.0058 32.3265Z" fill="#5156EA"/>
<path d="M14.5947 1.52186V4.51312H21.3119V1.52186C21.3119 0.734693 20.6822 0 19.9475 0H16.0641C15.2245 0 14.5947 0.787171 14.5947 1.52186Z" fill="#5156EA"/>
<path d="M31.86 9.55092C31.1253 8.18649 27.9242 5.40515 26.5598 4.88037C28.0816 3.56842 29.9184 3.93578 31.1253 4.82787C32.1749 5.60361 33.0146 7.29437 31.86 9.55092Z" fill="#15162A"/>
</svg>
