<svg width="60" height="61" viewBox="0 0 60 61" fill="none" xmlns="http://www.w3.org/2000/svg">
<path fill-rule="evenodd" clip-rule="evenodd" d="M29.9999 60.0526C46.5684 60.0526 59.9999 46.6212 59.9999 30.0526C59.9999 13.4841 46.5684 0.0527039 29.9999 0.0527039C13.4314 0.0527039 0 13.4841 0 30.0526C0 46.6212 13.4314 60.0526 29.9999 60.0526ZM29.9998 55.6081C44.1137 55.6081 55.5553 44.1665 55.5553 30.0526C55.5553 15.9386 44.1137 4.49705 29.9998 4.49705C15.8859 4.49705 4.4443 15.9386 4.4443 30.0526C4.4443 44.1665 15.8859 55.6081 29.9998 55.6081Z" fill="white"/>
<path d="M41.4888 30.3404C42.1554 30.7253 42.1554 31.6876 41.4888 32.0725L25.4503 41.3323C24.7837 41.7172 23.9504 41.236 23.9504 40.4662L23.9504 21.9467C23.9504 21.1769 24.7837 20.6957 25.4504 21.0806L41.4888 30.3404Z" fill="white"/>
</svg>
