<svg width="20" height="20" viewBox="0 0 20 20" fill="none" xmlns="http://www.w3.org/2000/svg">
<path fill-rule="evenodd" clip-rule="evenodd" d="M5.75564 2.14623L1.14792 6.83612C0.965014 7.02229 0.936876 7.36983 1.14792 7.58794C1.52896 7.98175 2.30864 8.78726 2.37899 8.85887C2.46692 8.94837 2.83624 9.34218 2.85383 9.91499C2.87142 10.4878 3.0297 10.8816 3.22315 11.2038C2.7659 11.7229 2.69555 12.421 3.11763 13.1371C3.45529 13.7099 4.09076 13.865 4.36629 13.871C4.3487 13.9963 4.38387 14.3471 4.66526 14.7481C5.11548 15.3495 5.68529 15.4402 5.91392 15.4104C5.87875 15.5536 5.86116 15.8916 6.31841 16.4665C6.79677 17.068 7.65501 17.0035 8.02433 16.8961C8.16502 17.2971 8.3751 17.5047 8.56952 17.6479C9.90611 18.6325 10.9789 17.2899 11.2251 16.8066C11.3517 16.9355 11.6413 17.0751 11.7703 17.1288C12.6321 17.4868 13.8104 16.7708 13.8631 15.661C15.0168 15.5608 15.4108 14.5512 15.3756 14.0858C15.7273 14.0858 16.2328 13.8889 16.5363 13.4951C17.2398 12.5821 16.7298 11.5976 16.5715 11.4186C17.0712 10.5921 17.1133 9.87842 17.1288 9.61611L17.1288 9.61596C17.1308 9.58295 17.1323 9.5571 17.1343 9.53908C17.1483 9.4102 17.2105 9.28251 17.2398 9.23477L18.8578 7.57004C19.0829 7.34091 18.9984 6.99723 18.8929 6.88982L14.2676 2.12833C14.1269 1.98512 13.7576 1.93142 13.5641 2.12833L13.5316 2.16187C13.2952 2.40553 11.8987 3.84495 11.7351 3.90046C11.6913 3.91532 9.4314 3.90552 8.56297 3.90175C8.38487 3.90098 8.2653 3.90046 8.23537 3.90046C8.09467 3.90046 6.99257 2.75484 6.45911 2.18203C6.26214 1.96722 5.91392 2.00302 5.75564 2.14623ZM7.00432 15.0698C6.83549 15.2846 6.9926 15.6008 7.09226 15.7321C7.21888 15.8896 7.60227 15.9827 7.77814 15.8216L8.72783 14.8371C8.89666 14.6223 8.763 14.3001 8.63989 14.1748C8.4816 14.0137 8.07712 13.9883 7.93642 14.1211C7.69607 14.3478 7.17316 14.855 7.00432 15.0698ZM10.1455 15.7243C9.93494 15.5101 9.59363 15.5101 9.38311 15.7243L9.14417 15.9676C8.93365 16.1818 8.93365 16.5292 9.14417 16.7435C9.35468 16.9578 9.696 16.9578 9.90651 16.7435L10.1455 16.5003C10.356 16.286 10.356 15.9386 10.1455 15.7243ZM7.19779 11.7408L5.54464 13.4413C5.3336 13.6584 5.42154 14.032 5.54464 14.1573C5.80844 14.4258 6.16018 14.3542 6.28328 14.2468L7.95402 12.5284C8.10879 12.3422 8.04196 12.0093 7.90126 11.8661C7.69022 11.6513 7.3209 11.6334 7.19779 11.7408ZM6.6197 3.86844L6.58226 3.8287L6.10741 3.34539C6.10155 3.32749 6.07928 3.30243 6.03707 3.34539C5.99486 3.38835 3.49872 5.95287 2.25592 7.22977L2.28228 7.25541C3.06174 8.01343 3.6994 8.63356 3.82114 9.30621C3.84757 9.45226 3.86632 9.65237 3.88421 9.84342C3.91676 10.1909 3.94651 10.5084 4.01459 10.416C4.45426 9.81935 5.38636 9.59262 6.17776 10.1654C6.42398 10.3436 6.65612 10.6702 6.67019 10.8277C7.01606 10.601 7.90126 10.3444 8.67508 11.132C9.22027 11.687 9.11475 12.749 8.85094 13.0653C9.29061 13.2085 9.76545 13.7097 9.8358 14.4973C10.082 14.4973 10.5815 14.6477 10.891 14.9627L12.0166 16.1084C12.1397 16.2158 12.5617 16.1084 12.6849 15.9651C12.8233 15.804 12.8818 15.4604 12.7552 15.3028L11.6296 14.1035C11.5241 13.9782 11.4995 13.6095 11.6824 13.4233C11.8407 13.2622 12.1221 13.1548 12.3507 13.3517L13.4763 14.4973C13.6345 14.6405 14.0144 14.6262 14.1973 14.4257C14.328 14.2825 14.4435 13.8994 14.2325 13.656L13.1245 12.5283C13.019 12.4209 13.0296 12.0629 13.2125 11.8481C13.3707 11.6622 13.7506 11.6476 13.9335 11.8481L15.0063 12.94C15.1646 13.0653 15.5843 13.0325 15.7274 12.8505C15.868 12.6715 15.963 12.3529 15.7801 12.1524L12.1397 8.39329L12.1027 8.39519C11.7518 8.41336 11.245 8.4396 10.7151 8.23219C10.6829 8.21957 10.6476 8.20497 10.61 8.18945L10.6097 8.18932L10.6096 8.18929C10.3272 8.07266 9.9181 7.90372 9.74787 8.12479C9.23785 8.7871 7.97864 9.6678 6.45915 8.9661C5.61499 8.57627 5.61499 8.16059 5.82603 7.85628L8.16506 4.95642C7.57851 4.88618 7.25595 4.5438 6.6197 3.86844ZM4.91151 10.9535L3.997 11.9022C3.85897 12.0454 3.87096 12.4213 4.03217 12.6183C4.2227 12.851 4.61253 12.8331 4.73564 12.7257L5.70291 11.7232C5.80843 11.5979 5.77326 11.2578 5.61498 11.0967C5.36878 10.8461 5.03462 10.8461 4.91151 10.9535ZM7.03951 8.05317L9.44889 5.09961C9.51924 5.02801 9.8358 4.95641 10.3106 4.95641C10.4618 4.95641 10.6013 4.95687 10.7304 4.95729C11.7425 4.96061 12.1151 4.96184 12.4738 4.7237L13.9159 3.29167L17.7498 7.21185C17.6327 7.33104 17.5004 7.45566 17.3628 7.58521C16.8392 8.07829 16.2396 8.64294 16.1143 9.2525C16.0915 9.36311 16.0822 9.49232 16.0722 9.62963C16.0484 9.95899 16.0211 10.335 15.7977 10.6129L13.23 8.01737C13.5232 7.8503 14.1868 7.34432 14.4963 6.65694C14.7601 6.07111 13.8983 5.61872 13.5818 6.13783C13.5782 6.14371 13.5746 6.14964 13.5709 6.15563C13.3076 6.58786 12.862 7.31926 11.6824 7.31926C11.3477 7.31926 11.0875 7.22456 10.8347 7.13258C10.596 7.04571 10.3639 6.96125 10.082 6.96125C9.76545 6.96125 9.33985 7.01853 8.9037 7.46246C8.89069 7.4757 8.87726 7.48951 8.86337 7.50377C8.55814 7.81738 8.03534 8.35451 7.03951 8.05317Z" fill="#333367"/>
</svg>
