<svg width="20" height="20" viewBox="0 0 20 20" fill="none" xmlns="http://www.w3.org/2000/svg">
<path fill-rule="evenodd" clip-rule="evenodd" d="M8.03016 8.63253L8.65173 8.01096C8.99542 7.63801 9.36836 6.85557 9.11242 5.95612C8.91498 5.40767 8.65098 4.4999 8.58592 3.89396C8.46891 2.80439 7.44515 2 6.4872 2H4.06673C3.10878 2 1.91682 2.90384 2.00458 4.32541C2.16392 6.90675 3.51097 10.8702 6.64076 13.8318C9.46144 16.5009 13.6462 18.1755 16.1764 17.9853C16.8857 17.932 18.0016 17.1956 18.0192 15.7916V13.532C18.0192 12.6325 17.361 11.8062 16.4762 11.4991C16.3166 11.4437 16.1779 11.4269 16.0011 11.4055C15.7729 11.3779 15.4812 11.3425 14.9991 11.2066C14.8893 11.1756 14.7635 11.1331 14.6285 11.0875C14.2237 10.9509 13.7357 10.7861 13.3464 10.819C12.915 10.8555 12.5245 10.9726 12.2203 11.2066C12.0228 11.3584 11.7596 11.5941 11.394 11.9744C10.0923 11.2066 8.61516 9.62704 8.03016 8.63253ZM3.48173 4.33271C3.41591 4.02558 3.61628 3.46251 4.18373 3.46251H6.41408C6.65539 3.46251 7.0649 3.65703 7.1234 4.05483C7.22664 4.75684 7.45978 5.81717 7.70841 6.35099C7.79356 6.5338 7.68501 6.89505 7.59141 6.9945L6.57496 8.01826C6.45064 8.16451 6.28099 8.53453 6.45064 8.84458C7.55498 10.8629 9.54387 12.7422 11.3208 13.6197C11.4671 13.6919 11.8473 13.5905 12.0375 13.393L12.915 12.5082C13.0978 12.3254 13.3947 12.2318 13.6755 12.3254C14.1874 12.496 15.1673 12.8007 16.0082 12.8958C16.2422 12.9222 16.5493 13.2614 16.5493 13.5466V15.8647C16.5493 16.1937 16.215 16.624 15.7596 16.574C10.3629 15.9817 4.40311 11.8062 3.48173 4.33271Z" fill="white"/>
</svg>
