<svg width="49" height="54" viewBox="0 0 49 54" fill="none" xmlns="http://www.w3.org/2000/svg">
<path d="M10.9231 35.0769V44.1538C6.30769 41.7692 0 34 0 23.7692C0 14.2308 8.61538 3.75601e-05 24.0769 0C40.3077 0 48.5384 14.2308 48.5384 23.7692C48.5384 33.9231 41.7692 41.6923 37.3846 44.1538V35.0769C38.8461 34.0256 41.7692 30.2923 41.7692 23.7692C41.7692 15.6154 35.0769 6.6923 24.0769 6.6923C13.8461 6.6923 6.76923 15.5384 6.76923 23.7692C6.76923 30.3077 9.53845 33.5384 10.9231 35.0769Z" fill="#5156EA"/>
<path d="M27.4616 25.6925V48.4617H44V54.0002H21.9231V25.6925C21.9231 24.7694 23.0769 24.231 24.6154 24.231C26.2308 24.231 27.4616 24.7694 27.4616 25.6925Z" fill="#5156EA"/>
</svg>
