<svg width="20" height="20" viewBox="0 0 20 20" fill="none" xmlns="http://www.w3.org/2000/svg">
<path d="M16.6781 18.452L12.5984 14.2392L13.84 12.9976L17.9641 17.299C18.1769 17.5118 18.2745 18.0085 17.9197 18.3633C17.5206 18.7624 16.9442 18.6737 16.6781 18.452Z" fill="white"/>
<path fill-rule="evenodd" clip-rule="evenodd" d="M8.74039 15.4808C12.463 15.4808 15.4808 12.463 15.4808 8.74039C15.4808 5.01778 12.463 2 8.74039 2C5.01778 2 2 5.01778 2 8.74039C2 12.463 5.01778 15.4808 8.74039 15.4808ZM8.74039 13.7072C11.4834 13.7072 13.707 11.4836 13.707 8.74059C13.707 5.99761 11.4834 3.77398 8.74039 3.77398C5.99742 3.77398 3.77379 5.99761 3.77379 8.74059C3.77379 11.4836 5.99742 13.7072 8.74039 13.7072Z" fill="white"/>
</svg>
