<svg width="20" height="20" viewBox="0 0 20 20" fill="none" xmlns="http://www.w3.org/2000/svg">
<path fill-rule="evenodd" clip-rule="evenodd" d="M3.6 16.4711C4.02667 13.2711 7.04889 11.2444 9.57333 11.2444C13.3422 11.1378 14.5867 8.72 14.5867 6.58667C14.5867 3.74222 12.0978 2 10 2C7.54667 2 5.34222 3.92 5.34222 6.58667C5.34222 7.76 5.96089 9.38133 7.01333 10.1778C4.52444 10.9244 2 14.1244 2 16.9333C2 17.4667 2.19911 18 2.85333 18H17.2533C17.8222 18 17.9289 17.3884 17.9289 16.7911C17.9289 15.1556 16.8907 12.944 15.5822 11.92C15.0489 11.5026 14.0178 12.4889 14.6222 13.0578C15.8311 14.1956 16.3644 15.5893 16.3644 16.4711H3.6ZM9.96445 9.67998C11.6728 9.67998 13.0578 8.29505 13.0578 6.58665C13.0578 4.87825 11.6728 3.49332 9.96445 3.49332C8.25605 3.49332 6.87112 4.87825 6.87112 6.58665C6.87112 8.29505 8.25605 9.67998 9.96445 9.67998Z" fill="white"/>
</svg>
