<svg width="70" height="70" viewBox="0 0 70 70" fill="none" xmlns="http://www.w3.org/2000/svg">
<path fill-rule="evenodd" clip-rule="evenodd" d="M35 70C54.33 70 70 54.33 70 35C70 15.67 54.33 0 35 0C15.67 0 0 15.67 0 35C0 54.33 15.67 70 35 70ZM34.9999 64.8148C51.4662 64.8148 64.8148 51.4662 64.8148 34.9999C64.8148 18.5337 51.4662 5.18512 34.9999 5.18512C18.5337 5.18512 5.18512 18.5337 5.18512 34.9999C5.18512 51.4662 18.5337 64.8148 34.9999 64.8148Z" fill="white"/>
<path d="M48.6538 35.4802C49.3205 35.8651 49.3205 36.8274 48.6538 37.2123L29.4423 48.3041C28.7756 48.689 27.9423 48.2079 27.9423 47.4381L27.9423 25.2545C27.9423 24.4847 28.7756 24.0036 29.4423 24.3885L48.6538 35.4802Z" fill="white"/>
</svg>
